<?xml version="1.0" encoding="UTF-8"?>
<svg id="Layer_1" data-name="Layer 1" xmlns="http://www.w3.org/2000/svg" viewBox="0 0 2093.17 2093.17">
  <defs>
    <style>
      .cls-1, .cls-2 {
        fill: #fff;
      }

      .cls-3 {
        fill: #3cb78b;
      }

      .cls-2 {
        font-family: MyriadPro-Regular, 'Myriad Pro';
        font-size: 155.83px;
      }

      .cls-4 {
        fill: none;
        stroke: #fff;
        stroke-miterlimit: 10;
        stroke-width: 5.34px;
      }
    </style>
  </defs>
  <g>
    <path class="cls-1" d="M1123.22,1308.53l-.09,.23h-406.05s0-273.88,0-273.88c-28.42-6.53-55.86-18.64-82.2-36.08-3.24-2.15-6.19-6.68-12.16-3.05-2.48,4.76-1.32,11.19-1.32,17.27-.06,134.52,.24,269.04-.39,403.54-.07,17.36,5.09,21.02,19.32,20.98,165.12-.51,330.22-.34,495.32-.34h15.39s0-128.66,0-128.66h-27.81Z"/>
    <path class="cls-3" d="M936.69,662.23c0,43.62,0,86.15,0,130.42-103.88,0-207.2,0-311.4,0,0-43.08,0-86.08,0-130.42,103.31,0,206.69,0,311.4,0Z"/>
    <path class="cls-1" d="M1756.82,1759.68l-1423.33-3.63,2.87-1422.56,1423.32,3.65-1.31,650.5-113.79-.31,1.05-521.24-1196.81-3.07-2.36,1165.81,1196.45,3.07,.72-364.83c-99.22-.83-225.76-1.89-273.13-2.29,.29-41.81,.56-83.55,.84-126.13,69.97,.59,316.44,2.68,387.06,3.29-.17,23.34-.33,46.42-.47,69.61l-1.12,548.12Z"/>
  </g>
  <path class="cls-1" d="M655.44,1012.06c1.76,.35,3.81,.15,5.24,1.12,50.97,34.86,119.63,27.97,170.16-28.4,26.77-29.86,46.06-65.67,65.04-101.74,19.63-37.31,40.46-73.43,69.69-102.44,64.99-64.49,137.9-77,218.28-43.7,21.72,9,43.54,18.29,65.97,24.34,24.15,6.51,45.08-3.39,62.13-23.83,3.95-4.73,5.09-8.07,1.12-13.89-7.91-11.59-12.13-25.03-12.76-40.9,19.89,6.99,36.34,18.29,50.11,34.97,3.3,4,8.08,7.32,12.72,8.87,12.64,4.2,22.66,11.64,31.72,22.74,10.55,12.92,23.13,23.76,35,35.27,4.32,4.19,10.05,6.88,7.29,15.49-2.97,9.27-9.96,16.44-17.62,16.65-2.57,.07-5.15-.73-7.73-1.11-14.35-2.09-28.74-3.91-43.05-6.33-16-2.71-27.39,6.14-37.33,18.42-7.83,9.67-14.91,20.12-22.68,29.86-18.88,23.68-43.69,35.12-70.35,42.23-6.17,1.64-8.89,4.88-10.79,11.69-5.05,18.05-10.48,36.04-16.92,53.51-7.15,19.41-34.41,29.59-50.3,18.85-3.73-2.52-6.18-9.05-7.37-14.27-.95-4.18-1.64-12.03,6.73-5.22,7.31,5.94,5.14-4.36,7.12-7.34,12.48,10.48,20.73,7.38,25.2-9.11,4.34-16,2.47-32.05-1.28-47.57-4.77-19.74-5.44-27.79-.3-46.62-8.35,6.27-12.88,20.58-10.57,36.03,1.09,7.3,1.6,10.27-7.01,8.54-14.26-2.86-28.55-.52-40.91,8.87-3.03,2.3-5.91,7.53-6.09,11.57-2.15,49.46-21.97,86.6-57.69,115.27-18.98,15.24-35.4,34.73-52.19,53.21-15.69,17.27-23.58,39.24-26.95,63.6-5.84,42.25-15.27,83.2-32.21,121.91-6.28,14.34-8.77,30.79-13.81,49.31-2.02-7.84-3.97-13.53-4.93-19.43-3.46-21.3-2.31-42.39,2.54-63.35,8.84-38.2,17.11-76.94,12.42-116.5-2.78-23.42,3.84-38.24,18.44-53.79,13.01-13.86,23.92-31.47,32.17-49.51,11.25-24.63,8.23-49.67-7.97-71.55-11-14.85-22.22-29.48-35.06-43.6,1.69,5.31,3.61,10.55,4.95,15.97,.4,1.63-.39,5.12-1.33,5.48-22.5,8.76-38.91,26.75-55.04,45.36-13,14.99-25.59,30.68-39.92,43.91-44.7,41.3-95.54,58.66-152.83,44.05-25.3-6.45-46.63-21.27-60.81-46.97l-.21,.12Z"/>
  <g>
    <circle class="cls-4" cx="1544.19" cy="562" r="61.78"/>
    <text class="cls-2" transform="translate(1492.46 646.25)"><tspan x="0" y="0">™</tspan></text>
  </g>
</svg>